C:\Users\r0593348\3dpredictsim\Results\Batchsim_tmt_linear\Pog_s1_tmt_bCst_d05_k1000_ig24_act_GRF.mot
nRows=20
nColumns=19

name C:\Users\r0593348\3dpredictsim\Results\Batchsim_tmt_linear\Pog_s1_tmt_bCst_d05_k1000_ig24_act_GRF.mot
datacolumns 19
datarows 20
range 0.0000000000 0.2302504039
endheader
time 	ground_force_vx	ground_force_vy	ground_force_vz	ground_force_px	ground_force_py	ground_force_pz	1_ground_force_vx	1_ground_force_vy	1_ground_force_vz	1_ground_force_px	1_ground_force_py	1_ground_force_pz	ground_torque_x	ground_torque_y	ground_torque_z	1_ground_torque_x	1_ground_torque_y	1_ground_torque_z
        0.0000000000	      -56.2254342883	       44.0092972598	       14.6591863123	        0.1830014298	        0.0000000000	        0.0510169496	      107.3883053963	      422.9691713597	       -1.3615472150	       -0.3548776664	        0.0000000000	       -0.0339786614	        0.0000000000	        0.0000000000	        0.0000000000	        0.0000000000	        0.0000000000	        0.0000000000	
        0.0121184423	     -127.5535511693	      131.9932655714	       48.9073946952	        0.1912352803	        0.0000000000	        0.0490594572	       72.1627180718	      319.4529840778	       -7.9287470029	       -0.3470492510	        0.0000000000	       -0.0308663136	        0.0000000000	        0.0000000000	        0.0000000000	        0.0000000000	        0.0000000000	        0.0000000000	
        0.0242368846	      -62.6534658473	      315.4430584157	       17.7954337951	        0.1972896651	        0.0000000000	        0.0471698966	       39.4958594054	      212.6409548353	      -13.8041980183	       -0.3334476253	        0.0000000000	       -0.0248733877	        0.0000000000	        0.0000000000	        0.0000000000	        0.0000000000	        0.0000000000	        0.0000000000	
        0.0363553269	      -60.4183422509	      533.1335887227	       -5.2365409616	        0.2020444488	        0.0000000000	        0.0474451863	       23.7975807471	      165.3378442661	      -13.9330803545	       -0.3277163388	        0.0000000000	       -0.0218793504	        0.0000000000	        0.0000000000	        0.0000000000	        0.0000000000	        0.0000000000	        0.0000000000	
        0.0484737692	     -108.3703041954	      771.7864057044	      -15.9351721815	        0.2123422396	        0.0000000000	        0.0499049787	       18.5174103572	      121.7171211674	      -16.0458295466	       -0.3273424653	        0.0000000000	       -0.0221458680	        0.0000000000	        0.0000000000	        0.0000000000	        0.0000000000	        0.0000000000	        0.0000000000	
        0.0605922115	     -137.5563336943	      894.1110131539	      -21.0082503585	        0.2193418268	        0.0000000000	        0.0514827661	        6.5821300139	       68.7473535758	      -14.8888290072	       -0.3273128405	        0.0000000000	       -0.0224642185	        0.0000000000	        0.0000000000	        0.0000000000	        0.0000000000	        0.0000000000	        0.0000000000	
        0.0727106539	     -141.0434034115	      910.4122211190	      -21.4894832369	        0.2238345902	        0.0000000000	        0.0523552299	       -5.7473091811	       11.9034176168	       -3.2278749590	       -0.3302255792	        0.0000000000	       -0.0221480954	        0.0000000000	        0.0000000000	        0.0000000000	        0.0000000000	        0.0000000000	        0.0000000000	
        0.0848290962	     -127.9974848997	      876.5044613741	      -20.7308514807	        0.2275424979	        0.0000000000	        0.0528280501	        0.0022963469	       -0.0019835090	       -0.0000600247	        0.0000000000	        0.0000000000	        0.0000000000	        0.0000000000	        0.0000000000	        0.0000000000	        0.0000000000	        0.0000000000	        0.0000000000	
        0.0969475385	     -112.0535142893	      822.9667108538	      -19.5986259112	        0.2314298423	        0.0000000000	        0.0529812744	        0.0019049275	       -0.0014059230	       -0.0001030234	        0.0000000000	        0.0000000000	        0.0000000000	        0.0000000000	        0.0000000000	        0.0000000000	        0.0000000000	        0.0000000000	        0.0000000000	
        0.1090659808	      -98.5500791751	      773.4724124622	      -18.8383541695	        0.2356827351	        0.0000000000	        0.0529217291	        0.0095580051	       -0.0061783988	       -0.0006504723	        0.0000000000	        0.0000000000	        0.0000000000	        0.0000000000	        0.0000000000	        0.0000000000	        0.0000000000	        0.0000000000	        0.0000000000	
        0.1211844231	      -88.0472650534	      736.7663104253	      -18.9293141760	        0.2406980727	        0.0000000000	        0.0526563431	       -0.0727455176	        0.0426809443	        0.0054178120	        0.0000000000	        0.0000000000	        0.0000000000	        0.0000000000	        0.0000000000	        0.0000000000	        0.0000000000	        0.0000000000	        0.0000000000	
        0.1333028654	      -78.1507066215	      706.1069044376	      -19.1526528694	        0.2458474766	        0.0000000000	        0.0522889640	       -0.1973564221	        0.1075150722	        0.0152788609	        0.0000000000	        0.0000000000	        0.0000000000	        0.0000000000	        0.0000000000	        0.0000000000	        0.0000000000	        0.0000000000	        0.0000000000	
        0.1454213077	      -68.2755152131	      677.3248731076	      -19.6559202119	        0.2506158913	        0.0000000000	        0.0519789116	       -0.1207468881	        0.0624649913	        0.0092365080	        0.0000000000	        0.0000000000	        0.0000000000	        0.0000000000	        0.0000000000	        0.0000000000	        0.0000000000	        0.0000000000	        0.0000000000	
        0.1575397500	      -58.9245478327	      652.3976666038	      -20.0933453644	        0.2550891482	        0.0000000000	        0.0517594051	       -0.0740909446	        0.0366710352	        0.0056548512	        0.0000000000	        0.0000000000	        0.0000000000	        0.0000000000	        0.0000000000	        0.0000000000	        0.0000000000	        0.0000000000	        0.0000000000	
        0.1696581923	      -50.2796956606	      631.7619743017	      -20.5632194622	        0.2594939773	        0.0000000000	        0.0515984906	       -0.0553491979	        0.0263959748	        0.0042557232	        0.0000000000	        0.0000000000	        0.0000000000	        0.0000000000	        0.0000000000	        0.0000000000	        0.0000000000	        0.0000000000	        0.0000000000	
        0.1817766346	      -42.7559913837	      614.9660319328	      -20.9615139758	        0.2640000463	        0.0000000000	        0.0514570544	       -0.0514232479	        0.0237636288	        0.0039802116	        0.0000000000	        0.0000000000	        0.0000000000	        0.0000000000	        0.0000000000	        0.0000000000	        0.0000000000	        0.0000000000	        0.0000000000	
        0.1938950769	      -36.1493498811	      601.7354373975	      -20.8894821834	        0.2685892445	        0.0000000000	        0.0513200761	       -0.0582205219	        0.0261892070	        0.0044872062	        0.0000000000	        0.0000000000	        0.0000000000	        0.0000000000	        0.0000000000	        0.0000000000	        0.0000000000	        0.0000000000	        0.0000000000	
        0.2060135193	      -29.7712655509	      592.6531507205	      -20.7591149841	        0.2737054761	        0.0000000000	        0.0511208377	       -0.0779095299	        0.0342025390	        0.0059551430	        0.0000000000	        0.0000000000	        0.0000000000	        0.0000000000	        0.0000000000	        0.0000000000	        0.0000000000	        0.0000000000	        0.0000000000	
        0.2181319616	      -25.1466782355	      587.2051090592	      -20.4588606116	        0.2794792132	        0.0000000000	        0.0508129570	       -0.1191178971	        0.0511221182	        0.0089617190	        0.0000000000	        0.0000000000	        0.0000000000	        0.0000000000	        0.0000000000	        0.0000000000	        0.0000000000	        0.0000000000	        0.0000000000	
        0.2302504039	      -21.8339822971	      584.7200860636	      -19.9110733663	        0.2855942821	        0.0000000000	        0.0504089529	       -0.1981261241	        0.0832900044	        0.0145075867	        0.0000000000	        0.0000000000	        0.0000000000	        0.0000000000	        0.0000000000	        0.0000000000	        0.0000000000	        0.0000000000	        0.0000000000	
